<svg xmlns="http://www.w3.org/2000/svg" version="1.1" xmlns:xlink="http://www.w3.org/1999/xlink" xmlns:svgjs="http://svgjs.dev/svgjs" width="1000" height="1000" viewBox="0 0 1000 1000"><rect width="1000" height="1000" fill="#ed1703"></rect><g transform="matrix(0.7,0,0,0.7,150.51081088991725,111.11514170040488)"><svg viewBox="0 0 222 247" data-background-color="#ed1703" preserveAspectRatio="xMidYMid meet" height="1112" width="1000" xmlns="http://www.w3.org/2000/svg" xmlns:xlink="http://www.w3.org/1999/xlink"><g id="tight-bounds" transform="matrix(1,0,0,1,-0.16199997491190743,-0.09999999999999432)"><svg viewBox="0 0 222.32353569450711 247.2" height="247.2" width="222.32353569450711"><g><svg></svg></g><g><svg viewBox="0 0 222.32353569450711 247.2" height="247.2" width="222.32353569450711"><g transform="matrix(1,0,0,1,0,47.215199999999996)"><svg viewBox="0 0 222.32353569450711 152.7696" height="152.7696" width="222.32353569450711"><g><svg viewBox="0 0 222.32353569450711 152.7696" height="152.7696" width="222.32353569450711"><g><svg viewBox="0 0 244.43135999999998 167.96098972610298" height="152.7696" width="222.32353569450711"><g><svg viewBox="0 0 244.43135999999998 107.74248196498671" height="107.74248196498671" width="244.43135999999998"><g id="textblocktransform"><svg viewBox="0 0 244.43135999999998 107.74248196498671" height="107.74248196498671" width="244.43135999999998" id="textblock"><g><svg viewBox="0 0 244.43135999999998 66.31858604651161" height="66.31858604651161" width="244.43135999999998"><g transform="matrix(1,0,0,1,0,0)"><svg width="244.43135999999998" viewBox="2.75 -37.900001525878906 180.5800018310547 49" height="66.31858604651161" data-palette-color="#ffffff"><path d="M12.65-34.65Q19.3-34.65 22.88-31.8 26.45-28.95 26.45-23.4L26.45-23.4Q26.45-17.55 22.98-14.58 19.5-11.6 13.4-11.6L13.4-11.6 10.75-11.6 10.75 0 2.75 0 2.75-34.65 12.65-34.65ZM12.75-17.4Q15.55-17.4 16.9-18.78 18.25-20.15 18.25-23.35L18.25-23.35Q18.25-26.2 16.93-27.58 15.6-28.95 12.75-28.95L12.75-28.95 10.75-28.95 10.75-17.4 12.75-17.4ZM43.4-27.3Q44.7-27.3 45.7-26.9L45.7-26.9 44.45-19.5Q43.4-19.8 42.35-19.8L42.35-19.8Q40.3-19.8 39.2-18.23 38.1-16.65 37.5-13.55L37.5-13.55 37.5 0 29.8 0 29.8-26.55 36.55-26.55 37.15-21.9Q38.05-24.5 39.65-25.9 41.25-27.3 43.4-27.3L43.4-27.3ZM67.65-7.35Q67.65-6 68-5.35 68.34-4.7 69.2-4.35L69.2-4.35 67.59 0.7Q65.3 0.5 63.85-0.35 62.4-1.2 61.6-3L61.6-3Q59.15 0.85 54.45 0.85L54.45 0.85Q50.85 0.85 48.72-1.43 46.6-3.7 46.6-7.45L46.6-7.45Q46.6-11.8 49.52-14.1 52.45-16.4 58-16.4L58-16.4 60.1-16.4 60.1-17.65Q60.1-20 59.25-20.93 58.4-21.85 56.25-21.85L56.25-21.85Q53.8-21.85 50-20.5L50-20.5 48.25-25.45Q50.45-26.4 52.95-26.9 55.45-27.4 57.6-27.4L57.6-27.4Q62.75-27.4 65.2-25.1 67.65-22.8 67.65-18.1L67.65-18.1 67.65-7.35ZM56.75-4.65Q57.8-4.65 58.67-5.3 59.55-5.95 60.1-7.15L60.1-7.15 60.1-12.1 58.7-12.1Q56.35-12.1 55.25-11.13 54.15-10.15 54.15-8.1L54.15-8.1Q54.15-6.4 54.82-5.53 55.5-4.65 56.75-4.65L56.75-4.65ZM85.89-6L88.44-1.25Q87.09-0.25 85.32 0.3 83.54 0.85 81.74 0.85L81.74 0.85Q77.69 0.85 75.64-1.45 73.59-3.75 73.59-7.9L73.59-7.9 73.59-21.2 70.39-21.2 70.39-26.55 73.59-26.55 73.59-32.3 81.29-33.2 81.29-26.55 86.74-26.55 85.94-21.2 81.29-21.2 81.29-8Q81.29-5.25 83.39-5.25L83.39-5.25Q84.54-5.25 85.89-6L85.89-6ZM111.99-26.55L104.44 0.05Q101.59 10.4 90.54 11.1L90.54 11.1 89.69 5.75Q93.14 5.25 94.84 3.98 96.54 2.7 97.54 0L97.54 0 94.79 0 87.69-26.55 95.59-26.55 99.69-4.9 104.24-26.55 111.99-26.55ZM135.04-26.55L135.04 0 128.34 0 127.99-3.2Q125.39 0.85 120.94 0.85L120.94 0.85Q117.69 0.85 115.91-1.3 114.14-3.45 114.14-7.1L114.14-7.1 114.14-26.55 121.84-26.55 121.84-7.7Q121.84-4.85 123.84-4.85L123.84-4.85Q125.79-4.85 127.34-7.75L127.34-7.75 127.34-26.55 135.04-26.55ZM148.94-27.4Q151.59-27.4 153.88-26.55 156.19-25.7 157.94-24.15L157.94-24.15 155.13-19.95Q152.13-21.9 149.49-21.9L149.49-21.9Q148.09-21.9 147.34-21.33 146.59-20.75 146.59-19.75L146.59-19.75Q146.59-19 146.96-18.48 147.34-17.95 148.38-17.43 149.44-16.9 151.53-16.15L151.53-16.15Q155.24-14.9 157.01-13 158.78-11.1 158.78-7.85L158.78-7.85Q158.78-3.85 155.74-1.5 152.69 0.85 147.94 0.85L147.94 0.85Q144.88 0.85 142.26-0.2 139.63-1.25 137.78-3.05L137.78-3.05 141.44-7.15Q144.53-4.65 147.63-4.65L147.63-4.65Q149.19-4.65 150.06-5.33 150.94-6 150.94-7.2L150.94-7.2Q150.94-8.15 150.56-8.75 150.19-9.35 149.16-9.9 148.13-10.45 145.99-11.2L145.99-11.2Q142.34-12.45 140.66-14.38 138.99-16.3 138.99-19.25L138.99-19.25Q138.99-21.55 140.19-23.4 141.38-25.25 143.63-26.33 145.88-27.4 148.94-27.4L148.94-27.4ZM176.68-27.4Q179.78-27.4 181.56-25.33 183.33-23.25 183.33-19.65L183.33-19.65 183.33 0 175.63 0 175.63-18.6Q175.63-20.25 175.13-20.93 174.63-21.6 173.73-21.6L173.73-21.6Q172.73-21.6 171.81-20.78 170.88-19.95 169.88-18.35L169.88-18.35 169.88 0 162.18 0 162.18-37.1 169.88-37.9 169.88-23.65Q171.28-25.55 172.93-26.48 174.58-27.4 176.68-27.4L176.68-27.4Z" opacity="1" transform="matrix(1,0,0,1,0,0)" fill="#ffffff" class="wordmark-text-0" data-fill-palette-color="primary" id="text-0"></path></svg></g></svg></g><g transform="matrix(1,0,0,1,0,81.9748125660279)"><svg viewBox="0 0 244.43135999999998 25.76766939895882" height="25.76766939895882" width="244.43135999999998"><g transform="matrix(1,0,0,1,0,0)"><svg width="244.43135999999998" viewBox="4.150000095367432 -37 422.55999755859375 44.54999923706055" height="25.76766939895882" data-palette-color="#ffffff"><path d="M8.15 0L4.15 0 4.15-34.9 23-34.9 23-31.4 8.15-31.4 8.15-19.4 21.65-19.4 21.65-15.9 8.15-15.9 8.15 0ZM42.2 0L42.2-4.2 41.7-4.2Q40.95-1.8 39.37-0.6 37.8 0.6 35.1 0.6L35.1 0.6Q31.65 0.6 29.67-1.75 27.7-4.1 27.7-9L27.7-9 27.7-25.8 31.5-25.8 31.5-9.25Q31.5-6.15 32.77-4.5 34.05-2.85 36.7-2.85L36.7-2.85Q39-2.85 40.6-4.25 42.2-5.65 42.2-8.2L42.2-8.2 42.2-25.8 46-25.8 46 0 42.2 0ZM60.65 0L57.5 0Q55.45 0 54.52-0.93 53.59-1.85 53.59-3.9L53.59-3.9 53.59-37 57.4-37 57.4-3.35 60.65-3.35 60.65 0ZM72.54 0L69.39 0Q67.34 0 66.42-0.93 65.49-1.85 65.49-3.9L65.49-3.9 65.49-37 69.29-37 69.29-3.35 72.54-3.35 72.54 0ZM88.29-13.15L76.29-13.15 76.29-17.25 88.29-17.25 88.29-13.15ZM103.44 0.6L103.44 0.6Q99.69 0.6 96.89-0.98 94.09-2.55 92.24-5.35L92.24-5.35 95.14-7.75Q96.74-5.4 98.74-4.13 100.74-2.85 103.44-2.85L103.44-2.85Q110.54-2.85 110.54-9.5L110.54-9.5Q110.54-12.2 109.24-13.6 107.94-15 104.74-15.8L104.74-15.8 102.14-16.45Q97.54-17.6 95.36-19.83 93.19-22.05 93.19-26.1L93.19-26.1Q93.19-30.75 96.09-33.13 98.99-35.5 103.79-35.5L103.79-35.5Q107.44-35.5 109.91-34.15 112.39-32.8 114.24-29.9L114.24-29.9 111.29-27.8Q109.94-29.9 108.21-30.98 106.49-32.05 103.64-32.05L103.64-32.05Q100.44-32.05 98.76-30.65 97.09-29.25 97.09-26.1L97.09-26.1Q97.09-23.55 98.46-22.25 99.84-20.95 102.89-20.2L102.89-20.2 105.49-19.55Q107.94-18.95 109.64-18.13 111.34-17.3 112.41-16.1 113.49-14.9 113.96-13.28 114.44-11.65 114.44-9.5L114.44-9.5Q114.44-4.55 111.51-1.98 108.59 0.6 103.44 0.6ZM130.44 0L125.79 0Q123.74 0 122.81-0.93 121.89-1.85 121.89-3.9L121.89-3.9 121.89-22.45 118.09-22.45 118.09-25.8 120.34-25.8Q121.49-25.8 121.86-26.38 122.24-26.95 122.24-28.1L122.24-28.1 122.24-32.9 125.69-32.9 125.69-25.8 130.69-25.8 130.69-22.45 125.69-22.45 125.69-3.35 130.44-3.35 130.44 0ZM155.48 0L152.78 0Q149.08 0 149.08-3.7L149.08-3.7 149.08-4.2 148.58-4.2Q147.93-1.85 146.21-0.63 144.48 0.6 142.08 0.6L142.08 0.6Q138.33 0.6 136.48-1.3 134.63-3.2 134.63-6.9L134.63-6.9Q134.63-10.5 137.01-12.6 139.38-14.7 144.43-14.7L144.43-14.7 149.08-14.7 149.08-17.55Q149.08-20.4 147.81-21.75 146.53-23.1 143.78-23.1L143.78-23.1Q141.53-23.1 140.16-22.13 138.78-21.15 137.78-19.3L137.78-19.3 135.53-21.4Q136.53-23.5 138.73-24.93 140.93-26.35 143.93-26.35L143.93-26.35Q148.33-26.35 150.61-24.23 152.88-22.1 152.88-17.95L152.88-17.95 152.88-3.35 155.48-3.35 155.48 0ZM143.03-2.7L143.03-2.7Q144.33-2.7 145.46-3.15 146.58-3.6 147.38-4.33 148.18-5.05 148.63-5.98 149.08-6.9 149.08-7.9L149.08-7.9 149.08-11.8 144.33-11.8Q141.33-11.8 139.96-10.8 138.58-9.8 138.58-7.9L138.58-7.9 138.58-6.5Q138.58-4.55 139.78-3.63 140.98-2.7 143.03-2.7ZM169.13 0.6L169.13 0.6Q164.33 0.6 161.61-2.55 158.88-5.7 158.88-12.9L158.88-12.9Q158.88-20.1 161.61-23.25 164.33-26.4 169.13-26.4L169.13-26.4Q172.78-26.4 174.96-24.73 177.13-23.05 178.13-20.45L178.13-20.45 174.98-18.85Q174.33-20.85 172.93-21.93 171.53-23 169.13-23L169.13-23Q165.98-23 164.48-21.15 162.98-19.3 162.98-15.5L162.98-15.5 162.98-10.3Q162.98-6.5 164.48-4.65 165.98-2.8 169.13-2.8L169.13-2.8Q171.63-2.8 173.16-3.9 174.68-5 175.58-7.25L175.58-7.25 178.38-5.3Q177.23-2.6 174.91-1 172.58 0.6 169.13 0.6ZM183.33 0L183.33-37 187.13-37 187.13-18 186.83-12.95 187.23-12.95 190.83-17.8 197.28-25.8 201.88-25.8 193.33-15.55 202.63 0 198.08 0 190.53-13.3 187.13-9.3 187.13 0 183.33 0ZM207.38 7.55L204.03 7.55 215.88-37 219.23-37 207.38 7.55ZM244.37 0L244.37-4.85 243.87-4.85Q243.32-2.5 241.2-0.95 239.07 0.6 235.22 0.6L235.22 0.6Q232.37 0.6 230.02-0.48 227.67-1.55 226.02-3.75 224.37-5.95 223.45-9.38 222.52-12.8 222.52-17.45L222.52-17.45Q222.52-26.8 226.02-31.15 229.52-35.5 235.87-35.5L235.87-35.5Q240.47-35.5 243.22-33.52 245.97-31.55 247.52-28.1L247.52-28.1 244.22-26.1Q243.22-28.85 241.17-30.4 239.12-31.95 235.87-31.95L235.87-31.95Q231.52-31.95 229.17-29.08 226.82-26.2 226.82-21.35L226.82-21.35 226.82-13.55Q226.82-8.7 229.17-5.83 231.52-2.95 235.87-2.95L235.87-2.95Q237.57-2.95 239.1-3.45 240.62-3.95 241.75-4.93 242.87-5.9 243.52-7.33 244.17-8.75 244.17-10.55L244.17-10.55 244.17-14.35 237.27-14.35 237.27-17.85 248.07-17.85 248.07 0 244.37 0ZM274.07 0L271.37 0Q267.67 0 267.67-3.7L267.67-3.7 267.67-4.2 267.17-4.2Q266.52-1.85 264.8-0.63 263.07 0.6 260.67 0.6L260.67 0.6Q256.92 0.6 255.07-1.3 253.22-3.2 253.22-6.9L253.22-6.9Q253.22-10.5 255.59-12.6 257.97-14.7 263.02-14.7L263.02-14.7 267.67-14.7 267.67-17.55Q267.67-20.4 266.39-21.75 265.12-23.1 262.37-23.1L262.37-23.1Q260.12-23.1 258.75-22.13 257.37-21.15 256.37-19.3L256.37-19.3 254.12-21.4Q255.12-23.5 257.32-24.93 259.52-26.35 262.52-26.35L262.52-26.35Q266.92-26.35 269.19-24.23 271.47-22.1 271.47-17.95L271.47-17.95 271.47-3.35 274.07-3.35 274.07 0ZM261.62-2.7L261.62-2.7Q262.92-2.7 264.05-3.15 265.17-3.6 265.97-4.33 266.77-5.05 267.22-5.98 267.67-6.9 267.67-7.9L267.67-7.9 267.67-11.8 262.92-11.8Q259.92-11.8 258.55-10.8 257.17-9.8 257.17-7.9L257.17-7.9 257.17-6.5Q257.17-4.55 258.37-3.63 259.57-2.7 261.62-2.7ZM283.02 0L279.22 0 279.22-25.8 283.02-25.8 283.02-21.6 283.52-21.6Q284.27-24 285.72-25.2 287.17-26.4 289.82-26.4L289.82-26.4Q292.22-26.4 293.89-25.23 295.57-24.05 296.42-21.6L296.42-21.6 296.92-21.6Q297.72-24 299.42-25.2 301.12-26.4 303.92-26.4L303.92-26.4Q307.22-26.4 309.22-24.05 311.22-21.7 311.22-16.8L311.22-16.8 311.22 0 307.42 0 307.42-16.55Q307.42-19.65 306.19-21.3 304.97-22.95 302.42-22.95L302.42-22.95Q300.17-22.95 298.64-21.55 297.12-20.15 297.12-17.6L297.12-17.6 297.12 0 293.32 0 293.32-16.55Q293.32-19.65 292.09-21.3 290.87-22.95 288.32-22.95L288.32-22.95Q286.07-22.95 284.54-21.55 283.02-20.15 283.02-17.6L283.02-17.6 283.02 0ZM327.37 0.6L327.37 0.6Q325.12 0.6 323.17-0.15 321.22-0.9 319.82-2.55 318.42-4.2 317.62-6.75 316.82-9.3 316.82-12.9L316.82-12.9Q316.82-16.5 317.62-19.05 318.42-21.6 319.82-23.25 321.22-24.9 323.17-25.65 325.12-26.4 327.37-26.4L327.37-26.4Q329.62-26.4 331.49-25.65 333.37-24.9 334.67-23.25 335.97-21.6 336.69-19.05 337.42-16.5 337.42-12.9L337.42-12.9 337.42-11.95 320.87-11.95 320.87-10.3Q320.87-6.5 322.59-4.63 324.32-2.75 327.37-2.75L327.37-2.75Q329.97-2.75 331.62-3.88 333.27-5 334.22-7.25L334.22-7.25 336.82-5.35Q335.62-2.7 333.29-1.05 330.97 0.6 327.37 0.6ZM327.37-23.2L327.37-23.2Q324.27-23.2 322.57-21.25 320.87-19.3 320.87-15.5L320.87-15.5 320.87-14.85 333.37-14.85 333.37-15.5Q333.37-23.2 327.37-23.2ZM354.26 0L354.26-34.9 365.21-34.9Q371.26-34.9 374.56-30.73 377.86-26.55 377.86-17.45L377.86-17.45Q377.86-8.35 374.56-4.17 371.26 0 365.21 0L365.21 0 354.26 0ZM358.26-3.5L365.21-3.5Q368.96-3.5 371.26-6.1 373.56-8.7 373.56-13.55L373.56-13.55 373.56-21.35Q373.56-26.2 371.26-28.8 368.96-31.4 365.21-31.4L365.21-31.4 358.26-31.4 358.26-3.5ZM393.06 0.6L393.06 0.6Q390.81 0.6 388.86-0.15 386.91-0.9 385.51-2.55 384.11-4.2 383.31-6.75 382.51-9.3 382.51-12.9L382.51-12.9Q382.51-16.5 383.31-19.05 384.11-21.6 385.51-23.25 386.91-24.9 388.86-25.65 390.81-26.4 393.06-26.4L393.06-26.4Q395.31-26.4 397.18-25.65 399.06-24.9 400.36-23.25 401.66-21.6 402.38-19.05 403.11-16.5 403.11-12.9L403.11-12.9 403.11-11.95 386.56-11.95 386.56-10.3Q386.56-6.5 388.28-4.63 390.01-2.75 393.06-2.75L393.06-2.75Q395.66-2.75 397.31-3.88 398.96-5 399.91-7.25L399.91-7.25 402.51-5.35Q401.31-2.7 398.98-1.05 396.66 0.6 393.06 0.6ZM393.06-23.2L393.06-23.2Q389.96-23.2 388.26-21.25 386.56-19.3 386.56-15.5L386.56-15.5 386.56-14.85 399.06-14.85 399.06-15.5Q399.06-23.2 393.06-23.2ZM418.61 0L414.11 0 406.01-25.8 409.81-25.8 413.76-12.8 416.16-3.35 416.66-3.35 419.06-12.8 423.01-25.8 426.71-25.8 418.61 0Z" opacity="1" transform="matrix(1,0,0,1,0,0)" fill="#ffffff" class="slogan-text-1" data-fill-palette-color="secondary" id="text-1"></path></svg></g></svg></g></svg></g></svg></g><g transform="matrix(1,0,0,1,84.45103488,123.39870848450299)"><svg viewBox="0 0 75.52929024 44.5622812416" height="44.5622812416" width="75.52929024"><g><svg version="1.1" xmlns="http://www.w3.org/2000/svg" xmlns:xlink="http://www.w3.org/1999/xlink" x="0" y="0" viewBox="0 0 100 59" enable-background="new 0 0 100 59" xml:space="preserve" height="44.5622812416" width="75.52929024" class="icon-icon-0" data-fill-palette-color="accent" id="icon-0"><path d="M97.901 18l-0.003 0.001C96.896 7.895 88.372 0 78 0c-3.855 0-7.444 1.11-10.498 3H32.498C29.444 1.11 25.855 0 22 0 11.628 0 3.104 7.895 2.102 18.001L2.099 18C1.751 22.175 0 50.691 0 51c0 4.418 3.581 8 8 8 18.377 0 25.943-15.686 28.666-24h26.668C66.057 43.314 73.623 59 92 59c4.419 0 8-3.582 8-8C100 50.691 98.249 22.175 97.901 18zM22 32c-6.629 0-12-5.373-12-12S15.371 8 22 8s12 5.373 12 12S28.629 32 22 32zM78 32c-6.629 0-12-5.373-12-12S71.371 8 78 8s12 5.373 12 12S84.629 32 78 32z" fill="#ffffff" data-fill-palette-color="accent"></path><polygon points="31,17 25,17 25,11 19,11 19,17 13,17 13,23 19,23 19,29 25,29 25,23 31,23 " fill="#ffffff" data-fill-palette-color="accent"></polygon><path d="M78 16c0 2.21-1.79 4-4 4-2.205 0-4-1.79-4-4s1.795-4 4-4C76.21 12 78 13.79 78 16z" fill="#ffffff" data-fill-palette-color="accent"></path><path d="M86 24c0 2.21-1.79 4-4 4-2.205 0-4-1.79-4-4s1.795-4 4-4C84.21 20 86 21.79 86 24z" fill="#ffffff" data-fill-palette-color="accent"></path></svg></g></svg></g><g></g></svg></g></svg></g></svg></g><path d="M0 41.215L0 1 222.324 1 222.324 41.215 216.884 41.215 216.884 6.44 5.44 6.44 5.44 41.215 0 41.215M0 205.985L0 246.2 222.324 246.2 222.324 205.985 216.884 205.985 216.884 240.76 5.44 240.76 5.44 205.985 0 205.985" fill="#ffffff" stroke="transparent" data-fill-palette-color="primary"></path></svg></g><defs></defs></svg><rect width="222.32353569450711" height="247.2" fill="none" stroke="none" visibility="hidden"></rect></g></svg></g></svg>